<?xml version="1.0" encoding="UTF-8"?>
<svg version="1.1" viewBox="0 0 350 350" xmlns="http://www.w3.org/2000/svg">
	<g transform="translate(-14.3 -688.2)">
		<g transform="matrix(.9195 0 0 1.291 7.86 -327)">
			<path d="m251.8 1035 89.62-13.21 34.91-32.08-2.83-26.42-22.64-18.87-38.68-13.21 28.3-24.53 17.92-50-8.491-31.13-83.02-9.434-40.57 1.887-52.83-7.547-81.13-0.9434-41.51 11.32-3.774 17.92 2.83 22.64 18.87 64.15 15.09 19.81-22.64 10.38-35.85 21.7-5.66 19.81 15.09 13.21 50 11.32 115.1 13.21z" fill="#fff"/>
			<g stroke="#000" stroke-width="1px">
				<path d="m68.09 842.6c19.27 9.613 40.38 15.44 61.43 20 33.25 7.208 98.57 4.286 98.57 4.286s-71.12 9.844-107.1 2.857c-26.32-5.105-55.28-9.79-75.71-27.14-3.737-3.173-8.872-8.269-7.143-12.86 2.496-6.624 10.34-13.74 17.14-15.71 22.97-6.653 49-5.541 72.86-7.143 21.94-1.473 65.71 5.714 65.71 5.714s-44-2.872-65.71 0c-25.42 3.362-69.85-5.257-74.29 20-1.006 5.725 9.084 7.405 14.29 10z"/>
				<path d="m295.2 858.3c9.549-1.775 20.42-0.4407 28.57-5.714 6.88-4.448 16.88-12.23 14.29-20-3.006-8.999-17.78-7.018-27.14-8.571-40.88-6.783-124.3-2.857-124.3-2.857s86.22-12.57 128.6-5.714c17.11 2.768 45.38 1.534 48.57 18.57 2.482 13.26-17.67 21.68-30 27.14-39.81 17.64-130 12.86-130 12.86s61.03-10.06 91.43-15.71z"/>
				<path d="m363.8 848.3-18.57 14.29s-2.848 29.15-10 41.43c-15.44 26.49-67.14 62.86-67.14 62.86s57.25-32.55 75.71-58.57c12.2-17.19 20-60 20-60z"/>
				<path d="m256.7 968.3s-77.71 8.775-120 1.429c-22.92-3.981-39.04-15.29-54.29-32.86-21.96-25.29-34.29-84.29-34.29-84.29s6.232 57.82 25.71 85.71c14.63 20.95 33.36 35.8 58.57 40 45.97 7.664 124.3-10 124.3-10z"/>
				<path d="m325.2 935.5s45.45 8.944 54.29 27.14c7.221 14.87 1.181 36.4-10 48.57-18.14 19.75-50.62 18.88-77.14 22.86-48.04 7.207-145.7 1.429-145.7 1.429s96.06-0.5631 142.9-10c23.18-4.674 50.8-5.773 67.14-22.86 8.229-8.602 13.61-22.94 10-34.29-5.347-16.79-41.43-32.86-41.43-32.86z"/>
				<path d="m223.8 1024s-107.6 4.558-158.6-10c-13.52-3.865-33.92-6.312-37.14-20-2.27-9.645 9.41-18.09 17.14-24.29 9.662-7.741 34.29-14.29 34.29-14.29l-8.571-10s-26.69 10.59-37.14 20c-9.422 8.485-24.48 19.12-21.43 31.43 4.671 18.81 32.61 22.48 51.43 27.14 51.77 12.82 160 0 160 0z"/>
			</g>
			<g fill="none" stroke-linecap="round" stroke-linejoin="round">
				<path d="m73.54 833 42.45-8.491-28.3 16.04 46.23-16.98-21.7 20.75 42.45-16.98-24.53 26.42 58.49-18.87-21.7 20.75 56.6-22.64-16.98 24.53 38.68-25.47-9.434 25.47 35.85-21.7-13.21 20.75 26.42-20.75-4.717 15.09 25.47-14.15" stroke="#ad0000" stroke-width="7.9"/>
				<path d="m66.94 885.8 9.434-15.09-0.9434 46.23 20.75-42.45-2.83 52.83 17.92-38.68-10.38 52.83 29.25-55.66-16.98 65.09 34.91-61.32-16.98 65.09 34.91-71.7-12.26 74.53 25.47-67.92-13.21 66.04 28.3-61.32-7.547 61.32 31.13-66.98-11.32 64.15 24.53-61.32-4.717 57.55 17.92-57.55-5.66 50.94 22.64-47.17-2.83 38.68 16.98-39.62 0.9434 45.28 16.98-45.28-1.887 29.25 18.87-37.74-0.9434 27.36 18.87-31.13" stroke="#e7e7e7" stroke-width="6.4"/>
				<path d="m68.82 971.7s-11.04 9.383-9.434 15.09c2.857 10.15 18.13 11.36 28.3 14.15 33.75 9.26 69.74 8.66 104.7 7.547 41.87-1.332 90.21 7.05 124.5-16.98 5.531-3.873 11.07-11.37 9.434-17.92-2.302-9.224-23.58-16.04-23.58-16.04" stroke="#f0f0f0" stroke-width="10.8"/>
			</g>
		</g>
	</g>
</svg>
