<?xml version="1.0" encoding="UTF-8"?>
<svg width="256" height="256" version="1.1" viewBox="0 0 67.733 67.733" xml:space="preserve" xmlns="http://www.w3.org/2000/svg"><g transform="translate(-78.743 -50.661)"><path d="m108.27 71.2s4.417-4.9882 4.9127-4.5487c0.49569 0.43941-2.2826 3.9062-1.7567 4.3503 0.52589 0.44408 2.1622-1.9547 2.5886-1.5895 0.42648 0.36517-0.6204 2.4427-0.16053 2.693 0.45988 0.2503 1.7677-1.6118 2.5861-1.2882 0.81836 0.32359 1.0366 1.1735 1.03 1.7828-7e-3 0.60932-0.36548 0.98421-0.62287 1.215-0.25738 0.23079-0.99905 0.13318-0.99905 0.13318" fill="none" stroke="#3c1c44" stroke-linecap="round" stroke-linejoin="round" stroke-width=".79375"/><g transform="translate(6.4174 -10.676)" fill="none" stroke="#3c1c44" stroke-linecap="round" stroke-width=".79375"><path d="m82.573 74.459s3.2882-1.9557 5.602-1.4614 5.0601-0.62646 5.0601-0.62646"/><path d="m83.53 76.341s3.2882-1.9557 5.602-1.4614 5.0601-0.62646 5.0601-0.62646"/></g><path d="m90.878 88.185-5.6761-0.55425 3.6801-10.656z" fill="#3c1c44"/><path d="m130.38 66.731-3.4348-1.9831v-3.7464l3.3291-1.9221 3.4608 1.9981v3.8477z" fill="#3c1c44"/><path d="m130.49 88.148s-1.6706-4.7713-0.97415-5.0978 2.1403 2.8009 2.6821 2.5328-0.66097-3.6858-0.0544-4.0879 0.92708 1.4464 1.5353 1.2989 0.66799-1.611 0.66799-1.611" fill="none" stroke="#3c1c44" stroke-linecap="round" stroke-linejoin="round" stroke-width=".79375"/><path d="m91.275 105.13s4.4916 0.61111 4.6808 1.3503c0.1892 0.73922-3.0491 1.3323-3.0428 2.8948 6e-3 1.5624 3.778 3.5362 3.778 3.5362" fill="none" stroke="#3c1c44" stroke-linecap="round" stroke-width=".79375"/><path d="m133.62 107.79 4.4292-1.4514 1.8431-5.6657-9.9725-4.2296-4.9352 5.6452 7.3007 0.7778-4.3319 4.6311z" fill="#3c1c44"/><path d="m105.05 88.336 1.5135-4.5151 10.342-0.4501z" fill="#3c1c44"/></g></svg>
